<svg width="25" height="25" viewBox="0 0 25 25" fill="none" xmlns="http://www.w3.org/2000/svg">
<g opacity="0.6">
<path d="M20.8254 10.6121C19.9467 9.73347 18.5221 9.73347 17.6434 10.6121C16.7647 11.4908 16.7647 12.9154 17.6434 13.7941C18.5221 14.6728 19.9467 14.6728 20.8254 13.7941C21.704 12.9155 21.704 11.4909 20.8254 10.6121Z" fill="#030229"/>
<path d="M14.0754 10.6121C13.1967 9.73347 11.7721 9.73347 10.8934 10.6121C10.0147 11.4908 10.0147 12.9154 10.8934 13.7941C11.7721 14.6728 13.1967 14.6728 14.0754 13.7941C14.954 12.9155 14.954 11.4909 14.0754 10.6121Z" fill="#030229"/>
<path d="M7.32537 10.6121C6.44669 9.73347 5.02207 9.73347 4.14339 10.6121C3.26472 11.4908 3.26472 12.9154 4.14339 13.7941C5.02207 14.6728 6.44669 14.6728 7.32537 13.7941C8.20404 12.9155 8.20404 11.4909 7.32537 10.6121Z" fill="#030229"/>
</g>
</svg>
