<svg width="27" height="21" viewBox="0 0 27 21" fill="none" xmlns="http://www.w3.org/2000/svg">
<rect x="0.867188" y="0.289062" width="26" height="20" rx="4" fill="#FF836A"/>
<line x1="12" y1="11.2891" x2="4.86814" y2="11.2891" stroke="white" stroke-width="2"/>
<path d="M17.6682 5.83111H13.075V4.30156H22.8519V5.55838H20.7978H20.7694L20.7885 5.57932C21.0046 5.81514 21.1861 6.05539 21.3332 6.30005C21.4802 6.54436 21.583 6.80217 21.6417 7.07353L21.6439 7.08338H21.654H22.8519V8.3402H21.6835H21.6732L21.6712 8.35029C21.5144 9.14718 21.0879 9.84479 20.391 10.4432C19.6949 11.041 18.8172 11.3402 17.7568 11.3402H17.4616H17.4528L17.4498 11.3485L17.4203 11.4303L17.4038 11.4243L17.4233 11.4434L22.291 16.2125V16.2766H19.4744L14.6398 11.4293V9.70156H17.5797C18.1523 9.70156 18.608 9.56931 18.9455 9.30343C19.2818 9.03844 19.5097 8.72281 19.6287 8.35656L19.634 8.3402H19.6168H13.075V7.08338H19.5873H19.6048L19.5991 7.06684C19.4801 6.71871 19.257 6.42576 18.9303 6.18805C18.6029 5.94975 18.1819 5.83111 17.6682 5.83111Z" fill="white" stroke="white" stroke-width="0.025"/>
</svg>
