<svg width="18" height="18" viewBox="0 0 18 18" fill="none" xmlns="http://www.w3.org/2000/svg">
<g opacity="0.4">
<path fill-rule="evenodd" clip-rule="evenodd" d="M7.24352 8.35573C6.87894 8.35573 6.59066 8.63906 6.59066 8.9974C6.59066 9.3474 6.87894 9.63906 7.24352 9.63906H12.3307V13.6224C12.3307 15.6641 10.6435 17.3307 8.55772 17.3307H4.4286C2.35132 17.3307 0.664062 15.6724 0.664062 13.6307V4.3724C0.664062 2.3224 2.3598 0.664062 4.43708 0.664062H8.57467C10.6435 0.664062 12.3307 2.3224 12.3307 4.36406V8.35573H7.24352ZM15.3559 6.11423L17.7893 8.53923C17.9143 8.66423 17.9809 8.82257 17.9809 8.99757C17.9809 9.16423 17.9143 9.3309 17.7893 9.44757L15.3559 11.8726C15.2309 11.9976 15.0643 12.0642 14.9059 12.0642C14.7393 12.0642 14.5726 11.9976 14.4476 11.8726C14.1976 11.6226 14.1976 11.2142 14.4476 10.9642L15.7809 9.63923H12.3309V8.3559H15.7809L14.4476 7.0309C14.1976 6.7809 14.1976 6.37257 14.4476 6.12257C14.6976 5.86423 15.1059 5.86423 15.3559 6.11423Z" fill="#030229"/>
</g>
</svg>
