<svg width="26" height="21" viewBox="0 0 26 21" fill="none" xmlns="http://www.w3.org/2000/svg">
<path d="M2.80469 20.2031C2.11719 20.2031 1.52865 19.9583 1.03906 19.4688C0.549479 18.9792 0.304688 18.3906 0.304688 17.7031V2.70312C0.304688 2.01562 0.549479 1.42708 1.03906 0.9375C1.52865 0.447917 2.11719 0.203125 2.80469 0.203125H22.8047C23.4922 0.203125 24.0807 0.447917 24.5703 0.9375C25.0599 1.42708 25.3047 2.01562 25.3047 2.70312V9.35938C24.9297 9.08854 24.5339 8.84896 24.1172 8.64062C23.7005 8.43229 23.263 8.25521 22.8047 8.10938V5.20312H2.80469V10.2031H14.0547C13.2422 10.9948 12.6016 11.9271 12.1328 13C11.6641 14.0729 11.4297 15.224 11.4297 16.4531C11.4297 17.1198 11.5026 17.7708 11.6484 18.4062C11.7943 19.0417 12.0026 19.6406 12.2734 20.2031H2.80469ZM20.1797 20.8281L15.8047 16.4531C15.5339 16.1823 15.3411 15.8906 15.2266 15.5781C15.112 15.2656 15.0547 14.9531 15.0547 14.6406C15.0547 13.974 15.2943 13.3802 15.7734 12.8594C16.2526 12.3385 16.8672 12.0781 17.6172 12.0781C18.2005 12.0781 18.6589 12.2135 18.9922 12.4844C19.3255 12.7552 19.7214 13.1198 20.1797 13.5781C20.5964 13.1615 20.9766 12.8073 21.3203 12.5156C21.6641 12.224 22.138 12.0781 22.7422 12.0781C23.513 12.0781 24.1328 12.3438 24.6016 12.875C25.0703 13.4062 25.3047 14.0052 25.3047 14.6719C25.3047 14.9844 25.2422 15.2969 25.1172 15.6094C24.9922 15.9219 24.8047 16.2031 24.5547 16.4531L20.1797 20.8281Z" fill="#FFC227"/>
</svg>
