<svg width="60" height="60" viewBox="0 0 60 60" fill="none" xmlns="http://www.w3.org/2000/svg">
<rect opacity="0.1" width="60" height="60" rx="30" fill="#FFC227"/>
<mask id="mask0_4_453" style="mask-type:alpha" maskUnits="userSpaceOnUse" x="14" y="15" width="31" height="31">
<rect x="14.8047" y="15.2031" width="30" height="30" fill="#D9D9D9"/>
</mask>
<g mask="url(#mask0_4_453)">
<path d="M19.8047 40.2031C19.1172 40.2031 18.5286 39.9583 18.0391 39.4688C17.5495 38.9792 17.3047 38.3906 17.3047 37.7031V22.7031C17.3047 22.0156 17.5495 21.4271 18.0391 20.9375C18.5286 20.4479 19.1172 20.2031 19.8047 20.2031H39.8047C40.4922 20.2031 41.0807 20.4479 41.5703 20.9375C42.0599 21.4271 42.3047 22.0156 42.3047 22.7031V29.3594C41.9297 29.0885 41.5339 28.849 41.1172 28.6406C40.7005 28.4323 40.263 28.2552 39.8047 28.1094V25.2031H19.8047V30.2031H31.0547C30.2422 30.9948 29.6016 31.9271 29.1328 33C28.6641 34.0729 28.4297 35.224 28.4297 36.4531C28.4297 37.1198 28.5026 37.7708 28.6484 38.4062C28.7943 39.0417 29.0026 39.6406 29.2734 40.2031H19.8047ZM37.1797 40.8281L32.8047 36.4531C32.5339 36.1823 32.3411 35.8906 32.2266 35.5781C32.112 35.2656 32.0547 34.9531 32.0547 34.6406C32.0547 33.974 32.2943 33.3802 32.7734 32.8594C33.2526 32.3385 33.8672 32.0781 34.6172 32.0781C35.2005 32.0781 35.6589 32.2135 35.9922 32.4844C36.3255 32.7552 36.7214 33.1198 37.1797 33.5781C37.5964 33.1615 37.9766 32.8073 38.3203 32.5156C38.6641 32.224 39.138 32.0781 39.7422 32.0781C40.513 32.0781 41.1328 32.3438 41.6016 32.875C42.0703 33.4062 42.3047 34.0052 42.3047 34.6719C42.3047 34.9844 42.2422 35.2969 42.1172 35.6094C41.9922 35.9219 41.8047 36.2031 41.5547 36.4531L37.1797 40.8281Z" fill="#FFC227"/>
</g>
</svg>
