<svg width="60" height="60" viewBox="0 0 60 60" fill="none" xmlns="http://www.w3.org/2000/svg">
<rect opacity="0.2" width="60" height="60" rx="30" fill="#FF836A"/>
<rect x="16.8672" y="20.2891" width="26" height="20" rx="4" fill="#FF836A"/>
<line x1="28" y1="31.2891" x2="20.8681" y2="31.2891" stroke="white" stroke-width="2"/>
<path d="M33.6682 25.8311H29.075V24.3016H38.8519V25.5584H36.7978H36.7694L36.7885 25.5793C37.0046 25.8151 37.1861 26.0554 37.3332 26.3001C37.4802 26.5444 37.583 26.8022 37.6417 27.0735L37.6439 27.0834H37.654H38.8519V28.3402H37.6835H37.6732L37.6712 28.3503C37.5144 29.1472 37.0879 29.8448 36.391 30.4432C35.6949 31.041 34.8172 31.3402 33.7568 31.3402H33.4616H33.4528L33.4498 31.3485L33.4203 31.4303L33.4038 31.4243L33.4233 31.4434L38.291 36.2125V36.2766H35.4744L30.6398 31.4293V29.7016H33.5797C34.1523 29.7016 34.608 29.5693 34.9455 29.3034C35.2818 29.0384 35.5097 28.7228 35.6287 28.3566L35.634 28.3402H35.6168H29.075V27.0834H35.5873H35.6048L35.5991 27.0668C35.4801 26.7187 35.257 26.4258 34.9303 26.188C34.6029 25.9497 34.1819 25.8311 33.6682 25.8311Z" fill="white" stroke="white" stroke-width="0.025"/>
</svg>
