<svg width="26" height="20" viewBox="0 0 26 20" fill="none" xmlns="http://www.w3.org/2000/svg">
<rect width="26" height="20" rx="4" fill="#26C0E2"/>
<line x1="10.9062" y1="10.7969" x2="2.81909" y2="10.7969" stroke="white" stroke-width="2"/>
<path d="M6.85938 15.4063L6.85938 6.12206" stroke="white" stroke-width="2"/>
<path d="M16.801 5.54205H12.2078V4.0125H21.9847V5.26932H19.9306H19.9022L19.9214 5.29026C20.1374 5.52608 20.3189 5.76633 20.4661 6.01099C20.613 6.2553 20.7158 6.51311 20.7745 6.78446L20.7767 6.79432H20.7868H21.9847V8.05114H20.8163H20.806L20.804 8.06122C20.6472 8.85812 20.2207 9.55573 19.5239 10.1542C18.8277 10.7519 17.95 11.0511 16.8896 11.0511H16.5944H16.5856L16.5826 11.0594L16.5531 11.1412L16.5366 11.1353L16.5561 11.1544L21.4238 15.9234V15.9875H18.6072L13.7726 11.1403V9.4125H16.7125C17.2851 9.4125 17.7408 9.28025 18.0783 9.01436C18.4146 8.74938 18.6426 8.43375 18.7615 8.0675L18.7668 8.05114H18.7496H12.2078V6.79432H18.7201H18.7376L18.7319 6.77777C18.6129 6.42964 18.3898 6.1367 18.0632 5.89898C17.7357 5.66069 17.3147 5.54205 16.801 5.54205Z" fill="white" stroke="white" stroke-width="0.025"/>
</svg>
